<svg xmlns="http://www.w3.org/2000/svg" version="1.1" xmlns:xlink="http://www.w3.org/1999/xlink" xmlns:svgjs="http://svgjs.com/svgjs" width="1440" height="560" preserveAspectRatio="none" viewBox="0 0 1440 560"><g mask="url(&quot;#SvgjsMask1003&quot;)" fill="none"><path d="M509.1 333.85L545.1 333.85L545.1 369.85L509.1 369.85z" stroke="#d3b714"></path><path d="M1131.38 170.75L1157.88 170.75L1157.88 197.25L1131.38 197.25z" fill="#037b0b"></path><path d="M380.39 74.57 a52.4 52.4 0 1 0 104.8 0 a52.4 52.4 0 1 0 -104.8 0z" fill="rgba(208, 0, 0, 1)"></path><path d="M62.1 448.67a30.95 30.95 0 1 0-45.35-42.13z" fill="rgba(208, 0, 0, 1)"></path><path d="M1130.38 517.85 a26.37 26.37 0 1 0 52.74 0 a26.37 26.37 0 1 0 -52.74 0z" stroke="#d3b714"></path><path d="M771.77 383.66 a26.46 26.46 0 1 0 52.92 0 a26.46 26.46 0 1 0 -52.92 0z" stroke="#037b0b"></path><path d="M1097.46 166.7 a27.28 27.28 0 1 0 54.56 0 a27.28 27.28 0 1 0 -54.56 0z" fill="#d3b714"></path><path d="M947.92 402.45 a54.42 54.42 0 1 0 108.84 0 a54.42 54.42 0 1 0 -108.84 0z" fill="rgba(208, 0, 0, 1)"></path><path d="M903.39 323.66L907.26 323.66L907.26 358.57L903.39 358.57z" fill="#037b0b"></path><path d="M520.26 110.18a11.16 11.16 0 1 0 21.65-5.42z" fill="#037b0b"></path><path d="M1334.26 445.1a48.44 48.44 0 1 0 93.5-25.38z" fill="#037b0b"></path><path d="M1050.18 265.89a14.31 14.31 0 1 0-3.1 28.45z" fill="rgba(208, 0, 0, 1)"></path><path d="M6.76 143.72L10.92 143.72L10.92 147.88L6.76 147.88z" fill="#037b0b"></path><path d="M968.77 353.29L1000.48 353.29L1000.48 362.24L968.77 362.24z" stroke="#037b0b"></path><path d="M360.83 86.19L408.01 86.19L408.01 133.37L360.83 133.37z" fill="#037b0b"></path><path d="M925.24 316.89 a1.21 1.21 0 1 0 2.42 0 a1.21 1.21 0 1 0 -2.42 0z" fill="rgba(208, 0, 0, 1)"></path><path d="M1421.33 446.1L1442.01 446.1L1442.01 466.78L1421.33 466.78z" fill="#d3b714"></path><path d="M924.32 551.65a10.35 10.35 0 1 0 19 8.23z" stroke="#d3b714"></path><path d="M927.03 16.49 a7.12 7.12 0 1 0 14.24 0 a7.12 7.12 0 1 0 -14.24 0z" fill="#d3b714"></path><path d="M757.43 323.21a43.51 43.51 0 1 0 86.14-12.38z" fill="#d3b714"></path><path d="M697.47 32.56L745.21 32.56L745.21 80.3L697.47 80.3z" stroke="rgba(208, 0, 0, 1)"></path><path d="M172.08 257.58L211.82 257.58L211.82 297.32L172.08 297.32z" fill="#037b0b"></path><path d="M424.35 77.88a19.99 19.99 0 1 0 4.22 39.75z" fill="#037b0b"></path><path d="M233.17 143.17L234.78 143.17L234.78 144.78L233.17 144.78z" fill="#037b0b"></path><path d="M630.19 153.7L632.92 153.7L632.92 156.43L630.19 156.43z" fill="#037b0b"></path><path d="M1173.57 459.68 a36.51 36.51 0 1 0 73.02 0 a36.51 36.51 0 1 0 -73.02 0z" fill="#037b0b"></path><path d="M621.78 215.01L640.42 215.01L640.42 233.65L621.78 233.65z" fill="rgba(208, 0, 0, 1)"></path><path d="M284.21 302.04a7.88 7.88 0 1 0-15.24 4.02z" stroke="rgba(208, 0, 0, 1)"></path><path d="M204.11 262.87L258.83 262.87L258.83 283.54L204.11 283.54z" stroke="#d3b714"></path><path d="M1265.11 244.28 a18.05 18.05 0 1 0 36.1 0 a18.05 18.05 0 1 0 -36.1 0z" stroke="#037b0b"></path><path d="M149.75 211.71a5.82 5.82 0 1 0 6.42-9.71z" fill="rgba(208, 0, 0, 1)"></path><path d="M414.02 358.55a17.71 17.71 0 1 0-19.09 29.84z" fill="#037b0b"></path><path d="M1172.58 169.07a45.76 45.76 0 1 0-11.17 90.84z" fill="#d3b714"></path></g><defs><mask id="SvgjsMask1003"><rect width="1440" height="560" fill="#ffffff"></rect></mask></defs></svg>