<svg xmlns="http://www.w3.org/2000/svg" version="1.1" xmlns:xlink="http://www.w3.org/1999/xlink" xmlns:svgjs="http://svgjs.com/svgjs" width="1440" height="560" preserveAspectRatio="none" viewBox="0 0 1440 560"><g mask="url(&quot;#SvgjsMask1003&quot;)" fill="none"><rect width="1440" height="560" x="0" y="0" fill="#0e2a47"></rect><path d="M253.15 399.04 a3.84 3.84 0 1 0 7.68 0 a3.84 3.84 0 1 0 -7.68 0z" fill="#d3b714"></path><path d="M234.04 134.85L279.42 134.85L279.42 180.23L234.04 180.23z" fill="#d3b714"></path><path d="M1249.41 344.23L1282.65 344.23L1282.65 377.47L1249.41 377.47z" stroke="#037b0b"></path><path d="M955.12 272.47L993.34 272.47L993.34 310.69L955.12 310.69z" fill="#d3b714"></path><path d="M630.85 491.18 a35.87 35.87 0 1 0 71.74 0 a35.87 35.87 0 1 0 -71.74 0z" fill="#e73635"></path><path d="M508.55 291.26L513.08 291.26L513.08 323.17L508.55 323.17z" fill="#d3b714"></path><path d="M669.82 203.63L674.24 203.63L674.24 240.6L669.82 240.6z" stroke="#d3b714"></path><path d="M174.04 492.02a49.76 49.76 0 1 0-74.98-65.43z" fill="#e73635"></path><path d="M27.89 379.49 a8.23 8.23 0 1 0 16.46 0 a8.23 8.23 0 1 0 -16.46 0z" fill="#037b0b"></path><path d="M730.82 506.1 a17.02 17.02 0 1 0 34.04 0 a17.02 17.02 0 1 0 -34.04 0z" stroke="#e73635"></path><path d="M752.81 155.32L783.33 155.32L783.33 188.3L752.81 188.3z" fill="#e73635"></path><path d="M1393.61 176.89L1412.96 176.89L1412.96 196.24L1393.61 196.24z" fill="#d3b714"></path><path d="M492.83 11.81L547.33 11.81L547.33 59.96L492.83 59.96z" stroke="#037b0b"></path><path d="M52.81 38.38a23.03 23.03 0 1 0 35.02-29.92z" fill="#d3b714"></path><path d="M1260.12 197.51L1280.22 197.51L1280.22 217.61L1260.12 217.61z" fill="#d3b714"></path><path d="M143.12 403.84L196.45 403.84L196.45 457.17L143.12 457.17z" fill="#037b0b"></path><path d="M702.95 126.81L726.16 126.81L726.16 162.5L702.95 162.5z" stroke="#d3b714"></path><path d="M1357.58 538.24 a30.09 30.09 0 1 0 60.18 0 a30.09 30.09 0 1 0 -60.18 0z" fill="#037b0b"></path><path d="M440.89 404.38a10.36 10.36 0 1 0-8.27 19z" fill="#e73635"></path><path d="M75.18 466.35L110.66 466.35L110.66 489.41L75.18 489.41z" stroke="#e73635"></path><path d="M236.64 97.09L265.15 97.09L265.15 125.6L236.64 125.6z" fill="#037b0b"></path><path d="M895.14 290.45L925.77 290.45L925.77 321.08L895.14 321.08z" fill="#d3b714"></path><path d="M554.34 63.34L570.09 63.34L570.09 79.09L554.34 79.09z" stroke="#e73635"></path><path d="M272.93 507.94L278.41 507.94L278.41 555.7L272.93 555.7z" stroke="#d3b714"></path><path d="M223.39 212.61a43.95 43.95 0 1 0 23.88 84.59z" stroke="#d3b714"></path><path d="M171.34 172.04L211.99 172.04L211.99 212.69L171.34 212.69z" fill="#037b0b"></path><path d="M1172.35 303.36 a34.8 34.8 0 1 0 69.6 0 a34.8 34.8 0 1 0 -69.6 0z" stroke="#d3b714"></path><path d="M596.63 146.22L644.56 146.22L644.56 194.15L596.63 194.15z" stroke="#e73635"></path><path d="M667.48 385.36 a28.58 28.58 0 1 0 57.16 0 a28.58 28.58 0 1 0 -57.16 0z" stroke="#d3b714"></path><path d="M1409.61 128.6L1420.25 128.6L1420.25 139.24L1409.61 139.24z" fill="#e73635"></path><path d="M983.67 482.33 a1.39 1.39 0 1 0 2.78 0 a1.39 1.39 0 1 0 -2.78 0z" stroke="#037b0b"></path><path d="M929.37 182.31a49.63 49.63 0 1 0 65.54 74.54z" stroke="#d3b714"></path><path d="M928.7 554.83 a10.63 10.63 0 1 0 21.26 0 a10.63 10.63 0 1 0 -21.26 0z" fill="#e73635"></path></g><defs><mask id="SvgjsMask1003"><rect width="1440" height="560" fill="#ffffff"></rect></mask></defs></svg>